<?xml version="1.0" standalone="no"?>
<!DOCTYPE svg PUBLIC "-//W3C//DTD SVG 20010904//EN"
 "http://www.w3.org/TR/2001/REC-SVG-20010904/DTD/svg10.dtd">
<svg version="1.0" xmlns="http://www.w3.org/2000/svg"
 width="1200.000000pt" height="1200.000000pt" viewBox="0 0 1200.000000 1200.000000"
 preserveAspectRatio="xMidYMid meet">
<rect width="100%" height="100%" fill="#f5f410" />
<g transform="translate(0.000000,1200.000000) scale(0.100000,-0.100000)"
fill="#000000" stroke="none">
<path d="M5715 9934 c-16 -2 -73 -9 -125 -15 -281 -31 -573 -119 -856 -259
-309 -151 -540 -324 -790 -590 -486 -518 -751 -1262 -705 -1976 26 -382 110
-701 276 -1039 259 -527 689 -954 1229 -1220 255 -126 506 -203 816 -252 161
-25 566 -25 730 0 565 88 1038 310 1445 680 525 478 835 1131 873 1842 52 961
-403 1861 -1209 2395 -363 240 -788 388 -1234 430 -102 9 -381 12 -450 4z
m595 -139 c801 -124 1508 -625 1884 -1336 206 -390 299 -769 299 -1214 0 -354
-65 -681 -193 -982 -278 -647 -759 -1125 -1401 -1392 -456 -190 -990 -240
-1489 -141 -493 98 -986 368 -1332 729 -669 697 -897 1690 -596 2596 128 386
335 722 623 1010 433 434 963 683 1590 749 93 10 514 -3 615 -19z"/>
<path d="M4660 8759 c-14 -6 -36 -20 -48 -32 -52 -48 -52 -50 -52 -441 l0
-364 -108 -4 c-102 -3 -111 -5 -146 -32 -69 -52 -66 -4 -66 -957 0 -950 -3
-900 63 -950 l32 -24 1607 0 1607 0 28 21 c15 12 37 36 48 55 20 33 20 55 23
869 2 562 -1 851 -8 885 -12 56 -52 105 -103 124 -16 6 -68 11 -117 11 l-89 0
-3 368 -3 369 -28 41 c-54 77 43 72 -1360 71 -807 0 -1261 -4 -1277 -10z
m2544 -115 c13 -13 16 -42 16 -160 l0 -144 -1275 0 -1275 0 0 148 c0 102 4
152 12 160 9 9 303 12 1259 12 1121 0 1249 -2 1263 -16z m16 -1319 c0 -902 0
-915 -20 -935 -20 -20 -33 -20 -1253 -20 -1099 0 -1235 2 -1255 16 l-22 15 0
920 0 919 1275 0 1275 0 0 -915z m-2660 -226 c0 -784 -3 -751 63 -800 l32 -24
1287 0 1287 0 28 21 c15 12 37 36 48 55 19 33 20 55 23 747 l3 712 89 0 c81 0
90 -2 104 -22 14 -20 16 -118 16 -858 0 -459 -4 -840 -8 -846 -22 -34 -35 -34
-1594 -34 -1381 0 -1546 2 -1566 16 l-22 15 0 853 c0 649 3 855 12 864 8 8 46
12 105 12 l93 0 0 -711z"/>
<path d="M6613 8550 c-31 -13 -40 -55 -18 -80 15 -16 31 -20 87 -20 38 0 78 5
89 10 27 15 25 64 -3 84 -25 18 -118 21 -155 6z"/>
<path d="M6920 8540 c-25 -25 -26 -52 -2 -73 26 -23 154 -24 176 -1 23 22 20
60 -6 78 -35 24 -142 22 -168 -4z"/>
<path d="M5865 8153 c-174 -27 -331 -117 -427 -244 -194 -256 -175 -610 46
-832 83 -82 153 -127 258 -165 64 -23 88 -26 198 -26 103 1 137 5 190 23 303
104 480 381 442 690 -31 256 -219 472 -467 536 -64 17 -191 26 -240 18z m23
-286 l-3 -54 -57 12 c-32 6 -61 14 -65 18 -12 12 39 106 81 150 l41 42 3 -57
c2 -32 2 -82 0 -111z m202 51 c17 -32 29 -65 27 -72 -3 -8 -23 -17 -44 -20
-21 -4 -46 -9 -55 -12 -16 -5 -18 5 -18 107 l0 113 29 -28 c16 -16 44 -55 61
-88z m-475 -183 c-4 -22 -10 -67 -14 -100 l-6 -60 -91 -3 -92 -3 9 44 c11 60
43 142 73 188 l26 38 51 -31 c51 -32 51 -32 44 -73z m776 62 c30 -48 63 -134
73 -189 l7 -38 -90 0 -90 0 -5 33 c-2 17 -10 63 -16 101 -6 37 -9 70 -7 73 8
7 92 61 97 62 3 1 17 -18 31 -42z m-568 -80 l67 -11 0 -68 0 -68 -90 0 -90 0
0 33 c0 17 3 56 7 85 5 43 9 52 22 46 9 -3 46 -11 84 -17z m342 -44 c4 -38 9
-76 11 -85 5 -16 -4 -18 -85 -18 l-91 0 0 68 0 68 73 16 c39 8 75 16 79 17 3
0 9 -29 13 -66z m-562 -275 c4 -35 9 -81 12 -103 6 -39 5 -41 -40 -67 -26 -16
-50 -28 -54 -28 -15 0 -80 136 -95 199 l-14 61 93 0 92 0 6 -62z m287 -1 l0
-64 -82 -16 c-45 -9 -83 -15 -84 -14 -2 1 -6 37 -10 80 l-7 77 92 0 91 0 0
-63z m286 41 c-3 -13 -8 -49 -11 -80 -4 -32 -9 -58 -13 -58 -4 0 -23 4 -42 9
-19 5 -52 12 -72 16 l-38 6 0 64 0 65 90 0 c88 0 90 0 86 -22z m294 16 c0 -23
-36 -136 -55 -173 -45 -88 -45 -88 -101 -56 -27 16 -50 29 -52 31 -2 1 2 33 8
70 6 38 14 84 16 102 l5 32 89 0 c50 0 90 -3 90 -6z m-580 -346 l0 -112 -39
38 c-35 34 -91 129 -91 155 0 10 65 28 108 30 22 1 22 -1 22 -111z m179 100
c31 -7 51 -17 51 -25 0 -34 -89 -173 -111 -173 -5 0 -9 47 -9 105 0 58 4 105
9 105 5 0 32 -5 60 -12z"/>
<path d="M4448 5828 c-28 -23 -29 -48 -3 -74 l24 -24 1465 0 c916 0 1474 4
1490 10 34 12 44 54 21 80 -18 20 -41 20 -1500 20 -1170 0 -1484 -3 -1497 -12z"/>
<path d="M2104 3935 c-79 -17 -110 -33 -175 -94 -88 -81 -123 -194 -100 -327
24 -136 107 -236 227 -274 85 -27 187 -29 272 -7 64 17 149 67 159 93 6 17
-82 124 -102 124 -7 0 -37 -12 -65 -27 -101 -53 -229 -24 -269 60 -42 90 -35
159 22 224 38 43 81 63 137 63 67 0 82 -13 75 -65 -6 -37 -4 -45 13 -54 29
-15 147 -14 160 2 6 7 8 51 6 107 -3 84 -6 96 -26 113 -42 33 -93 55 -153 66
-73 14 -104 13 -181 -4z"/>
<path d="M3910 3943 c-183 -27 -279 -142 -240 -285 24 -86 98 -135 224 -148
44 -5 99 -15 121 -23 34 -12 40 -18 40 -43 0 -48 -62 -65 -170 -46 -38 7 -40
10 -45 47 l-5 40 -73 3 c-46 2 -79 -2 -88 -9 -10 -8 -14 -34 -14 -86 0 -71 1
-75 33 -104 54 -49 149 -72 286 -67 101 3 122 7 166 30 60 31 88 60 109 112
34 83 12 172 -58 234 -42 37 -108 58 -208 67 -85 8 -118 25 -118 60 0 38 60
59 135 46 36 -6 40 -9 45 -41 l5 -35 79 -3 c57 -2 82 1 87 10 5 7 9 46 9 85
l0 73 -37 24 c-62 40 -208 71 -283 59z"/>
<path d="M7302 3935 c-112 -25 -205 -97 -249 -191 -24 -51 -27 -72 -28 -154 0
-132 20 -186 99 -266 51 -51 72 -65 128 -84 124 -40 269 -27 368 33 79 48 81
56 31 113 -61 69 -65 71 -129 38 -69 -35 -135 -37 -205 -6 -41 19 -51 29 -74
78 -29 63 -28 114 2 178 32 67 132 111 209 92 24 -6 26 -11 26 -60 0 -47 3
-54 23 -60 40 -10 145 -7 153 6 4 6 6 54 5 106 -2 88 -4 95 -29 118 -67 59
-215 85 -330 59z"/>
<path d="M8026 3939 c-64 -10 -99 -25 -164 -67 -57 -37 -86 -76 -118 -157 -27
-71 -25 -209 5 -287 62 -162 283 -254 485 -202 112 28 188 90 236 189 21 44
24 64 25 165 0 107 -2 119 -28 168 -36 68 -91 128 -139 153 -82 42 -195 56
-302 38z m174 -184 c53 -27 84 -80 88 -151 2 -35 1 -75 -2 -89 -8 -32 -61 -92
-97 -111 -67 -34 -174 -5 -225 61 -24 32 -29 49 -32 109 -3 86 21 138 83 173
48 27 140 31 185 8z"/>
<path d="M9660 3943 c-53 -9 -127 -37 -167 -64 -52 -36 -88 -121 -79 -182 19
-118 88 -172 239 -188 140 -14 187 -43 148 -91 -17 -20 -28 -23 -88 -23 -37 0
-80 3 -95 8 -25 6 -28 12 -28 47 l0 40 -79 0 c-101 0 -105 -4 -95 -110 l7 -81
42 -24 c76 -45 138 -57 265 -53 100 3 121 7 165 30 98 51 129 103 123 204 -8
125 -83 184 -266 208 -103 13 -132 25 -132 56 0 39 63 63 135 51 36 -6 40 -9
45 -41 l5 -35 85 0 85 0 3 82 3 82 -40 26 c-59 40 -207 70 -281 58z"/>
<path d="M2556 3932 c-13 -3 -16 -17 -16 -82 l0 -79 38 -3 37 -3 0 -185 0
-185 -40 -5 -40 -5 -1 -60 c0 -104 -18 -95 192 -95 140 0 184 3 185 13 0 6 1
41 2 77 l2 65 -42 3 c-40 3 -43 5 -43 33 0 33 -3 32 110 34 174 3 290 94 290
227 0 71 -23 133 -64 175 -63 63 -108 72 -372 75 -122 2 -228 2 -238 0z m451
-206 c30 -35 29 -42 -6 -77 -27 -26 -35 -29 -99 -29 -78 0 -82 3 -82 74 0 61
12 69 94 63 60 -4 73 -8 93 -31z"/>
<path d="M4342 3930 c-21 -9 -23 -15 -20 -82 l3 -73 41 -3 41 -3 -2 -112 c-1
-62 -2 -147 -3 -189 l-2 -77 -37 -3 -38 -3 0 -75 0 -75 178 -3 177 -2 10 25
c11 29 13 95 4 119 -4 11 -19 16 -45 16 l-39 0 0 189 0 190 38 3 37 3 3 78 3
77 -113 0 c-62 0 -135 2 -163 5 -27 3 -60 0 -73 -5z"/>
<path d="M5526 3932 c-14 -3 -16 -15 -14 -80 l3 -77 35 -5 35 -5 1 -170 c1
-93 0 -178 -3 -187 -3 -13 -14 -18 -38 -18 l-33 0 -4 -67 c-3 -38 -3 -73 -1
-80 4 -9 83 -13 301 -15 164 -2 305 -1 315 1 15 3 17 17 17 121 0 135 5 128
-94 120 -60 -5 -61 -5 -64 -37 l-3 -33 -95 0 -95 0 3 48 3 47 80 5 80 5 0 75
0 75 -82 3 -83 3 0 49 0 50 89 0 90 0 3 -32 3 -33 71 -3 c84 -3 84 -4 84 118
0 132 32 119 -299 122 -158 2 -295 2 -305 0z"/>
<path d="M6622 3932 c-22 -3 -23 -7 -20 -80 l3 -77 40 -3 40 -3 -1 -82 c-1
-45 -2 -130 -3 -189 l-1 -108 -40 0 -41 0 3 -77 3 -78 180 0 180 0 3 78 3 77
-41 0 -40 0 0 189 0 190 38 3 37 3 3 73 c2 52 -1 73 -10 76 -18 6 -308 13
-336 8z"/>
<path d="M8579 3933 c-33 -5 -39 -25 -32 -102 l6 -60 36 -3 36 -3 3 -187 2
-188 -39 0 -39 0 -4 -57 c-6 -112 -22 -103 177 -103 105 0 176 4 180 10 3 6 3
41 -1 79 -6 69 -7 70 -37 73 l-30 3 -3 100 -3 100 25 -30 c14 -16 77 -99 140
-183 l115 -153 87 3 87 3 3 267 2 267 38 3 37 3 0 75 0 75 -164 3 c-91 1 -168
-1 -172 -5 -4 -5 -9 -42 -11 -83 l-3 -75 33 -3 c31 -3 32 -5 32 -46 0 -24 3
-64 6 -90 8 -58 -4 -59 -45 -3 -17 23 -47 62 -67 87 -19 25 -64 84 -100 133
l-66 87 -58 0 c-31 0 -77 2 -101 4 -24 2 -56 2 -70 -1z"/>
<path d="M4777 3923 c-4 -3 -7 -64 -7 -134 0 -146 -5 -139 101 -139 75 0 74
-1 81 75 3 25 7 30 28 30 24 0 25 -3 28 -70 2 -38 1 -120 -3 -182 l-7 -112
-36 -3 -37 -3 -3 -76 c-2 -56 1 -78 10 -81 7 -2 91 -2 186 0 l172 4 0 79 0 79
-40 0 -40 0 2 182 c3 170 4 183 22 186 23 5 36 -14 36 -54 0 -17 6 -36 13 -41
12 -10 142 -11 152 -2 7 8 8 35 7 157 l-2 112 -328 0 c-181 0 -332 -3 -335 -7z"/>
</g>
</svg>
